<svg width="24" height="24" viewBox="0 0 24 24" fill="none" xmlns="http://www.w3.org/2000/svg">
<path d="M17.2929 4.79289C17.6834 4.40237 18.3166 4.40237 18.7071 4.79289C19.0976 5.18342 19.0976 5.81658 18.7071 6.20711L12.7071 12.2071C12.3285 12.5857 11.7189 12.5989 11.3243 12.2372L5.32428 6.73715C4.91716 6.36396 4.88965 5.73139 5.26285 5.32428C5.63604 4.91716 6.26862 4.88965 6.67573 5.26285L11.9699 10.1159L17.2929 4.79289Z" fill="#E9ECEF"/>
<path opacity="0.3" d="M17.2929 15.9931C17.6834 15.6026 18.3166 15.6026 18.7071 15.9931C19.0976 16.3836 19.0976 17.0168 18.7071 17.4073L12.7071 23.4073C12.3285 23.7859 11.7189 23.7991 11.3243 23.4373L5.32428 17.9373C4.91716 17.5642 4.88965 16.9316 5.26285 16.5245C5.63604 16.1173 6.26862 16.0898 6.67573 16.463L11.9699 21.3161L17.2929 15.9931Z" fill="#E9ECEF"/>
</svg>
