<svg width="116" height="116" viewBox="0 0 116 116" fill="none" xmlns="http://www.w3.org/2000/svg">
<circle cx="58" cy="58" r="58" fill="#FFF957"/>
<path d="M67.4416 94.6695L66.1023 102.111L64.9446 102.316L61.1537 95.7817L62.2715 95.584L63.1723 97.1848L66.0268 96.6798L66.3237 94.8672L67.4416 94.6695ZM65.8756 97.5712L63.62 97.9702L65.311 100.955L65.8756 97.5712Z" fill="black"/>
<path d="M55.2788 95.4504C55.9466 95.4893 56.5213 95.6751 57.0027 96.0078C57.4842 96.3405 57.8473 96.7881 58.092 97.3506C58.3367 97.9131 58.4378 98.5587 58.3953 99.2872C58.3532 100.009 58.1744 100.638 57.8588 101.175C57.5432 101.711 57.1167 102.12 56.5792 102.4C56.0345 102.686 55.4047 102.808 54.6896 102.767C53.8801 102.72 53.217 102.485 52.7001 102.062C52.1833 101.639 51.864 101.079 51.7422 100.381L52.9565 100.452C53.0424 100.836 53.2375 101.146 53.542 101.38C53.8464 101.614 54.2483 101.746 54.7474 101.775C55.4895 101.818 56.0869 101.613 56.5399 101.159C56.9928 100.705 57.2438 100.056 57.293 99.2127C57.3422 98.3695 57.1714 97.6996 56.7807 97.203C56.39 96.7064 55.8473 96.4379 55.1525 96.3974C54.4509 96.3564 53.9132 96.5248 53.5392 96.9023C53.1584 97.2794 52.9184 97.7968 52.8192 98.4543L54.7417 98.5664L54.6933 99.3962L51.6881 99.2209L51.9124 95.3758L52.8939 95.4331L52.9241 96.4806C53.1819 96.1234 53.4954 95.854 53.8647 95.6725C54.2341 95.4909 54.7054 95.4169 55.2788 95.4504Z" fill="black"/>
<path d="M49.7052 94.7476L47.609 101.526L43.3 100.193L43.5575 99.3605L46.8401 100.376L47.4929 98.2647L44.5008 97.3394L44.7524 96.526L47.7445 97.4513L48.4213 95.2629L45.1386 94.2478L45.3962 93.415L49.7052 94.7476ZM46.6332 101.765L46.3966 102.53L44.7887 102.892L43.6563 101.683L43.8928 100.918L45.0193 102.147L46.6332 101.765Z" fill="black"/>
<path d="M40.9753 91.4672L37.2672 97.5161L36.3513 96.9546L36.1098 90.5413L33.3181 95.0953L32.4022 94.5338L36.1102 88.4849L37.0262 89.0464L37.2677 95.4597L40.0593 90.9057L40.9753 91.4672Z" fill="black"/>
<path d="M31.212 83.7759C31.7016 84.28 32.0163 84.8221 32.156 85.4024C32.2861 85.9824 32.2514 86.5625 32.0519 87.1426C31.8475 87.7274 31.4859 88.2717 30.9673 88.7755C30.4438 89.2839 29.8893 89.6295 29.3037 89.8121C28.7132 89.9995 28.1299 90.0196 27.5538 89.8727C26.9731 89.7209 26.4379 89.393 25.9482 88.8889C25.3691 88.2927 25.0414 87.6644 24.9649 87.0038C24.8885 86.3433 25.0626 85.7079 25.4872 85.0976L26.3205 85.9555C26.0908 86.3106 25.997 86.6843 26.039 87.0768C26.0811 87.4692 26.2834 87.852 26.646 88.2253C27.1403 88.7342 27.7056 88.967 28.3417 88.9237C28.9731 88.8851 29.5917 88.5715 30.1975 87.983C30.7986 87.3992 31.1275 86.7923 31.1845 86.1624C31.2414 85.5324 31.0227 84.963 30.5284 84.4541C30.1658 84.0808 29.7939 83.8628 29.4125 83.7999C29.0311 83.737 28.6645 83.8106 28.3126 84.0205L27.4793 83.1626C28.0823 82.7747 28.7103 82.6309 29.3635 82.7312C30.0167 82.8315 30.6329 83.1797 31.212 83.7759Z" fill="black"/>
<path d="M27.2859 78.9969L21.316 82.8308L20.7354 81.9268L26.7054 78.0929L27.2859 78.9969Z" fill="black"/>
<path d="M24.6811 74.5882L17.1221 74.7854L16.6868 73.6931L22.3173 68.6563L22.7375 69.7109L21.3525 70.9174L22.4256 73.6103L24.2608 73.5336L24.6811 74.5882ZM21.5221 73.643L20.6742 71.515L18.0946 73.7759L21.5221 73.643Z" fill="black"/>
<path d="M21.0167 59.7292L13.9247 59.5225L14.0561 55.014L14.9274 55.0394L14.8273 58.474L17.036 58.5383L17.1272 55.4077L17.9782 55.4325L17.887 58.5631L20.1767 58.6298L20.2768 55.1953L21.1481 55.2207L21.0167 59.7292Z" fill="black"/>
<path d="M21.9233 50.4257L15.0138 48.8142L15.2578 47.7679L21.3382 49.186L22.0703 46.0471L22.8994 46.2405L21.9233 50.4257Z" fill="black"/>
<path d="M24.3145 43.1543L16.7661 42.6522L17.234 41.6068L23.5618 42.1068L18.9771 37.7119L19.4408 36.6758L24.8445 41.9701L24.3145 43.1543Z" fill="black"/>
<path d="M27.2018 37.7137L23.1626 31.3214L23.878 30.3883L31.0872 32.6463L30.3965 33.5472L28.651 32.9752L26.8872 35.2756L27.8926 36.8128L27.2018 37.7137ZM26.3965 34.5163L27.7903 32.6984L24.5276 31.64L26.3965 34.5163Z" fill="black"/>
<path d="M37.4902 23.1304L36.8838 21.7598L36.2908 23.1223L35.5567 22.7042L36.4599 21.5134L34.9965 21.7168L34.9829 20.9048L36.4861 21.0531L35.5852 19.8414L36.2868 19.435L36.8896 20.8194L37.5001 19.4467L38.1839 19.8589L37.2895 21.0446L38.7668 20.8449L38.7678 21.6759L37.296 21.5211L38.1831 22.7291L37.4902 23.1304Z" fill="black"/>
<path d="M50.8677 21.7234L52.5163 14.3437L53.6816 14.1874L57.1965 20.8745L56.0714 21.0254L55.2382 19.3884L52.3651 19.7738L51.9928 21.5725L50.8677 21.7234ZM52.5533 18.8895L54.8237 18.585L53.2587 15.5327L52.5533 18.8895Z" fill="black"/>
<path d="M63.0524 21.4505C62.3868 21.3837 61.8204 21.1741 61.3533 20.8216C60.8861 20.4692 60.542 20.0068 60.321 19.4345C60.0999 18.8623 60.0259 18.2131 60.0987 17.487C60.1709 16.7676 60.3758 16.1464 60.7135 15.6234C61.0512 15.1004 61.4945 14.7103 62.0432 14.4529C62.5993 14.1895 63.2337 14.0936 63.9464 14.1651C64.7532 14.2461 65.406 14.5085 65.9047 14.9524C66.4035 15.3963 66.6991 15.9693 66.7917 16.6713L65.5815 16.5498C65.5117 16.1625 65.3296 15.8455 65.0351 15.5986C64.7407 15.3518 64.3448 15.2034 63.8472 15.1534C63.1077 15.0792 62.5021 15.2596 62.0307 15.6944C61.5592 16.1293 61.2813 16.7669 61.197 17.6074C61.1127 18.4478 61.2553 19.1242 61.6249 19.6367C61.9946 20.1491 62.5256 20.4401 63.2181 20.5096C63.9174 20.5798 64.4617 20.434 64.8511 20.0724C65.2473 19.7115 65.5086 19.2046 65.6353 18.5518L63.7191 18.3596L63.8021 17.5326L66.7973 17.8331L66.4128 21.6654L65.4346 21.5673L65.448 20.5194C65.1756 20.8656 64.8511 21.1217 64.4745 21.2876C64.098 21.4536 63.6239 21.5079 63.0524 21.4505Z" fill="black"/>
<path d="M68.5919 22.3854L70.9691 15.7005L75.2188 17.2117L74.9267 18.033L71.6893 16.8818L70.949 18.9636L73.8999 20.013L73.6146 20.8152L70.6637 19.7658L69.8962 21.9241L73.1336 23.0753L72.8415 23.8966L68.5919 22.3854ZM71.954 15.5021L72.2223 14.7477L73.8439 14.453L74.9249 15.7088L74.6566 16.4632L73.5824 15.1883L71.954 15.5021Z" fill="black"/>
<path d="M77.1773 26.0272L81.1345 20.1382L82.0263 20.7375L82 27.1553L84.9792 22.7217L85.8709 23.321L81.9137 29.2099L81.022 28.6107L81.0483 22.1929L78.0691 26.6264L77.1773 26.0272Z" fill="black"/>
<path d="M86.611 34.1192C86.1428 33.5951 85.851 33.0403 85.7357 32.4548C85.6298 31.8697 85.6887 31.2916 85.9123 30.7204C86.141 30.1446 86.5249 29.6159 87.0641 29.1342C87.6083 28.648 88.1768 28.3259 88.7695 28.1679C89.3673 28.0053 89.9509 28.0095 90.5204 28.1803C91.0943 28.3562 91.6154 28.7062 92.0835 29.2303C92.6373 29.8501 92.9385 30.4916 92.9873 31.1548C93.0361 31.8179 92.8356 32.4455 92.3859 33.0375L91.5891 32.1456C91.8335 31.8004 91.9428 31.4309 91.9172 31.0371C91.8915 30.6432 91.7053 30.2523 91.3587 29.8642C90.886 29.3351 90.331 29.0789 89.6935 29.0957C89.0612 29.1079 88.43 29.3954 87.8001 29.9581C87.1753 30.5163 86.8212 31.1089 86.7381 31.736C86.6549 32.363 86.8496 32.941 87.3223 33.4701C87.669 33.8582 88.0315 34.0915 88.4099 34.1703C88.7883 34.249 89.1577 34.1909 89.518 33.9958L90.3148 34.8877C89.6962 35.2501 89.0627 35.3676 88.4142 35.2401C87.7658 35.1127 87.1647 34.739 86.611 34.1192Z" fill="black"/>
<path d="M90.3343 39.0577L96.459 35.4763L97.0014 36.4037L90.8766 39.9852L90.3343 39.0577Z" fill="black"/>
<path d="M92.7528 43.5713L100.313 43.6897L100.703 44.7992L94.867 49.5967L94.4912 48.5255L95.9253 47.3778L94.9655 44.6425L93.1287 44.6425L92.7528 43.5713ZM95.8696 44.6475L96.628 46.809L99.2997 44.6577L95.8696 44.6475Z" fill="black"/>
<path d="M95.7941 58.5705L102.871 59.0729L102.552 63.572L101.682 63.5103L101.926 60.0829L99.7217 59.9264L99.4999 63.0505L98.6506 62.9902L98.8724 59.8661L96.5875 59.7039L96.3442 63.1313L95.4747 63.0696L95.7941 58.5705Z" fill="black"/>
<path d="M94.5001 67.8279L101.336 69.7263L101.049 70.7615L95.0329 69.0909L94.1705 72.1965L93.3502 71.9687L94.5001 67.8279Z" fill="black"/>
<path d="M91.8076 74.9933L99.3285 75.8099L98.8174 76.8349L92.5159 76.0713L96.9133 80.6537L96.4068 81.6696L91.2287 76.1543L91.8076 74.9933Z" fill="black"/>
<path d="M88.6957 80.3084L92.4647 86.8637L91.711 87.7661L84.6022 85.2093L85.3299 84.338L87.05 84.9824L88.9083 82.7575L87.9679 81.1797L88.6957 80.3084ZM89.3668 83.5367L87.8984 85.2948L91.1141 86.4885L89.3668 83.5367Z" fill="black"/>
<path d="M77.8078 94.4499L78.3565 95.8446L79.0058 94.508L79.7218 94.9564L78.7697 96.1085L80.2404 95.9663L80.22 96.7782L78.7243 96.5673L79.5739 97.8155L78.8559 98.1923L78.3114 96.7839L77.6442 98.1299L76.9782 97.6896L77.9213 96.5422L76.437 96.6802L76.4706 95.8498L77.9347 96.0659L77.0987 94.822L77.8078 94.4499Z" fill="black"/>
</svg>
